<svg xmlns="http://www.w3.org/2000/svg" width="100.317" height="130.374" viewBox="0 0 100.317 130.374">
  <g id="bank-mellat" transform="translate(-23.283 -8.226)">
    <g id="Group_1588" data-name="Group 1588">
      <path id="Path_5307" data-name="Path 5307" d="M76.5,93.9c1-.6,1.9-1.1,2.8-1.6,1.5-.9,3-1.7,4.5-2.6,1.3-.7,2.6-1.4,3.8-2.2,1.8-1.1,3.6-2.1,5.5-3.2,1.1-.7,2.3-1.3,3.4-1.9,1.7-1,3.3-1.9,5-2.9l3-1.8a1.7,1.7,0,0,0,.6-.6,1.027,1.027,0,0,0-.5-1.3c-2.8-1.6-5.5-3.2-8.3-4.7-2.4-1.4-4.7-2.7-7.1-4.1-.8-.5-.9-.5-.5-1.4a13.818,13.818,0,0,0,.8-2.7,15.6,15.6,0,0,0,.3-4.3,24.551,24.551,0,0,0-1-4.7,19.477,19.477,0,0,0-2.4-4.5A18.234,18.234,0,0,0,79,43.8a13.525,13.525,0,0,0-3.3-.9c-.2,0-.4-.1-.7-.1a.215.215,0,0,1-.2-.2V28.8c.9.6,1.9,1.1,2.8,1.6,1.9,1.1,3.8,2.2,5.6,3.2,4.8,2.7,9.5,5.5,14.3,8.2,4.8,2.8,9.6,5.5,14.4,8.2,1.1.7,2.3,1.2,3.4,2a7.112,7.112,0,0,1,2.7,4.5,12.1,12.1,0,0,1,.1,1.9V83.8a2.857,2.857,0,0,1-1.6,2.7c-2.8,1.6-5.5,3.2-8.3,4.8-2.9,1.6-5.7,3.3-8.6,4.9l-5.7,3.3a8.566,8.566,0,0,1-4.1,1,8.741,8.741,0,0,1-4.1-1.4,37.184,37.184,0,0,0-3.4-1.9c-1.5-.9-3-1.7-4.5-2.6A4.15,4.15,0,0,1,76.5,93.9Z" fill="#ba0b22"/>
      <path id="Path_5308" data-name="Path 5308" d="M45,73.6V28.2a7.562,7.562,0,0,1,2.5-5.7,24.631,24.631,0,0,1,2.7-1.7l5.7-3.3c2-1.1,4-2.3,5.9-3.4,2.5-1.5,5.1-2.9,7.6-4.4a18.343,18.343,0,0,1,2.4-1.3,2.836,2.836,0,0,1,2.4.2l14.1,8.1c2.2,1.3,4.4,2.6,6.6,3.8.9.5,1.8,1,2.7,1.6a6.549,6.549,0,0,1,2.8,4.1,9.863,9.863,0,0,1,.3,2.4V39.1c0,.5,0,.5-.4.3-1.6-.9-3.2-1.9-4.8-2.8-1.3-.7-2.6-1.5-3.9-2.2-1.5-.8-2.9-1.7-4.4-2.5-1.6-.9-3.1-1.8-4.7-2.7-2.5-1.5-5.1-2.9-7.6-4.4-.8-.5-1.5-.9-2.3-1.3-1-.5-1.6.1-1.6,1V42.4c0,.6,0,.7-.6.7A14.705,14.705,0,0,0,64.6,45a16.7,16.7,0,0,0-6.1,5.7,15.783,15.783,0,0,0-2.4,6,17.758,17.758,0,0,0-.2,4.6,12.036,12.036,0,0,0,.6,3.2,10.663,10.663,0,0,0,.7,1.9c.1.3-.1.3-.3.4-1.6.9-3.1,1.8-4.7,2.7-2.3,1.3-4.6,2.7-7,4C45.1,73.5,45.1,73.5,45,73.6Z" fill="#ba0b22"/>
      <path id="Path_5309" data-name="Path 5309" d="M41.3,62.3V78.1a1.135,1.135,0,0,0,1.1,1.2A.864.864,0,0,0,43,79c1.2-.6,2.3-1.3,3.5-1.9,1.6-.9,3.2-1.9,4.8-2.8,1.1-.7,2.3-1.3,3.4-1.9,1.2-.7,2.5-1.4,3.7-2.1.7-.4.7-.4,1.1.2a20.574,20.574,0,0,0,3,2.9A17.723,17.723,0,0,0,67.4,76a15.253,15.253,0,0,0,3.7.8,19.673,19.673,0,0,0,4.2-.1,16.509,16.509,0,0,0,5.8-1.9,16.725,16.725,0,0,0,4.7-3.7,5.547,5.547,0,0,0,.6-.8c.2-.2.3-.3.6-.1,1,.6,2,1.2,3,1.7,1.2.7,2.5,1.4,3.7,2.1,1.5.9,3,1.7,4.4,2.6.2.1.6.1.6.4,0,.1-.4.3-.6.4-1.2.7-2.5,1.4-3.7,2.1-1.5.9-3,1.8-4.6,2.6-1.7,1-3.4,1.9-5,2.8-3,1.7-6.1,3.5-9.1,5.3-2.7,1.5-5.3,3.1-8,4.6-2.9,1.6-5.7,3.3-8.6,4.9a7.28,7.28,0,0,1-4.1.9A10.2,10.2,0,0,1,50.6,99c-2.6-1.5-5.3-3-7.9-4.5-2.5-1.5-5.1-2.9-7.7-4.3-2.1-1.2-4.2-2.4-6.2-3.6a2.4,2.4,0,0,1-1.2-2.2V58.2A7.983,7.983,0,0,1,29,53.7a8.5,8.5,0,0,1,2.7-2.3c1.5-.9,3-1.7,4.5-2.6,1.3-.7,2.5-1.4,3.8-2.2a4.053,4.053,0,0,1,.9-.5c.1-.1.2-.2.4-.1.1.1.1.2.1.4V60.9a6.6,6.6,0,0,0-.1,1.4Z" fill="#ba0b22"/>
      <path id="Path_5310" data-name="Path 5310" d="M72.8,73.2A13.478,13.478,0,0,1,59.4,58.6a13.671,13.671,0,0,1,.9-4,14.533,14.533,0,0,1,5.2-6.3,12.444,12.444,0,0,1,6.7-2.2,13.239,13.239,0,0,1,10.4,4.2,12.681,12.681,0,0,1,3.6,7.3,13.283,13.283,0,0,1-3.1,10.8A13.146,13.146,0,0,1,72.8,73.2Z" fill="#ffc730"/>
    </g>
    <g id="Group_1590" data-name="Group 1590">
      <path id="Path_5311" data-name="Path 5311" d="M60.3,125.4a2.909,2.909,0,0,1-2.3.7H53.8a3.658,3.658,0,0,1-2.8-.9,4.39,4.39,0,0,1-3.4,1.1H45.8a3.805,3.805,0,0,1-3-1,5.621,5.621,0,0,1-3.9,1c-3.8,0-7.6-.1-11.4,0-2.8.1-4.4-1.7-4.2-4.2.1-1.8,0-3.7,0-5.6a2.746,2.746,0,0,1,3.8,2.5v2.9a1.53,1.53,0,0,0,1.7,1.7H39a1.5,1.5,0,0,0,1.7-1.6v-3.2a2.3,2.3,0,0,1,1.4-2.2c.2-.1.3-.1.5-.2,1.6-.5,1.8-.3,1.8,1.3v4.2c0,.5-.1,1-.1,1.6,1.3,0,2.5.1,3.7,0,.7-.1,1.1-.8,1.1-1.7,0-3,.1-6.1,0-9.1,0-1.7,1.9-2.7,3.5-2.4.1,0,.2.3.2.5v10.9a1.781,1.781,0,0,0,1.6,1.9,7.388,7.388,0,0,0,2.1,0,1.028,1.028,0,0,0,1-1.1v-2.6a3.5,3.5,0,0,1,3.5-3.6,45.1,45.1,0,0,1,5.2,0,3.5,3.5,0,0,1,3.5,3.6v2.5a3.362,3.362,0,0,1-3.4,3.6,24.1,24.1,0,0,1-3.8,0A4.559,4.559,0,0,1,60.3,125.4Zm.8-1.8h4c.6,0,.9-.4.9-1v-2.9a.945.945,0,0,0-1-1H62.2a.945.945,0,0,0-1,1A25.083,25.083,0,0,0,61.1,123.6Z"/>
      <path id="Path_5312" data-name="Path 5312" d="M77.2,116.5a3.814,3.814,0,0,1,2.6.4,2.332,2.332,0,0,1,1.3,2.1v3a1.591,1.591,0,0,0,1.8,1.8H93a1.591,1.591,0,0,0,1.8-1.8v-8.7a2.632,2.632,0,0,1,2.5-2.9,4.8,4.8,0,0,1,1.2,0v8.9c0,1,0,2,.1,3a1.394,1.394,0,0,0,1.5,1.4h2.2a1.472,1.472,0,0,0,1.6-1.6v-2.9a2.358,2.358,0,0,1,2.2-2.7,6.622,6.622,0,0,1,1.5-.1v6.5a3.315,3.315,0,0,1-3.1,3.4,56.105,56.105,0,0,1-5.8,0,6.975,6.975,0,0,1-2.2-.7c-.9.9-2.2.8-3.5.8H81.4c-2.6,0-4-1.4-4-4v-5A1.645,1.645,0,0,1,77.2,116.5Z"/>
      <path id="Path_5313" data-name="Path 5313" d="M110.7,110.4a3.6,3.6,0,0,1,3,.7,2.2,2.2,0,0,1,.8,1.8v8.9c0,1.4.5,1.9,1.9,1.9h1.7a1.591,1.591,0,0,0,1.8-1.8v-2.7a2.3,2.3,0,0,1,2.1-2.6c.5-.1,1-.1,1.6-.2v6.2a3.439,3.439,0,0,1-3.6,3.7h-5.6a3.411,3.411,0,0,1-3.6-3.6V110.9A.9.9,0,0,1,110.7,110.4Z"/>
      <path id="Path_5314" data-name="Path 5314" d="M34,115.1c-.6.6-1.1,1.2-1.7,1.8a.562.562,0,0,1-.9,0c-.5-.6-1.1-1.1-1.6-1.6-.3-.3-.3-.5,0-.8.6-.5,1.1-1.1,1.7-1.7.3-.3.5-.3.8,0,.5.6,1.1,1.2,1.8,1.9.6-.6,1.1-1.2,1.7-1.8.3-.4.6-.3.9,0,.5.5,1,1.1,1.6,1.6a.563.563,0,0,1,0,.9l-1.5,1.5q-.45.6-.9,0C35.2,116.3,34.6,115.7,34,115.1Z"/>
      <path id="Path_5315" data-name="Path 5315" d="M88.3,114.6h.2c.4.1,1,0,1.1.3a1.287,1.287,0,0,1-.1,1.2,5.024,5.024,0,0,1-.8,1.2,1.689,1.689,0,0,1-1,.3,4.034,4.034,0,0,1-1.1,0c.2-.5.5-1,.7-1.5h-.2c-1.3.1-1.6-.4-1-1.6.7-1.4,1.1-1.6,2.9-1.5A12.619,12.619,0,0,1,88.3,114.6Z"/>
      <path id="Path_5316" data-name="Path 5316" d="M117.2,132c-.1-.1-.2-.1-.3-.2-.6-.6-1.2-1.2-1.8-1.7a.418.418,0,0,1,0-.7c.6-.5,1.1-1.1,1.7-1.7.3-.3.5-.3.8,0l1.7,1.7a.638.638,0,0,1,0,.6,17.043,17.043,0,0,1-1.9,1.9A.31.31,0,0,0,117.2,132Z"/>
      <path id="Path_5317" data-name="Path 5317" d="M102.8,115.7c-.1-.1-.3-.2-.4-.3l-1.6-1.6c-.3-.3-.3-.5,0-.8.6-.5,1.1-1.1,1.7-1.7.3-.3.5-.3.7,0l1.7,1.7c.1.1.2.5.1.6a17.044,17.044,0,0,1-1.9,1.9C103.1,115.6,102.9,115.6,102.8,115.7Z"/>
      <g id="Group_1589" data-name="Group 1589">
        <path id="Path_5318" data-name="Path 5318" d="M73.6,138.5H72.3v-4.6a10.092,10.092,0,0,1,1.5.7,2.849,2.849,0,0,1,3.4,0c.9-.8,2-.6,3.1-.4a1.1,1.1,0,0,1,.8,1.2v3.1H79.8V136c0-.8-.2-.9-1-.9-1.4,0-1.4,0-1.4,1.4v2H76.1V136c0-.7-.2-.9-.9-.9h-.4c-.9,0-1.1.1-1.1,1.1A16.224,16.224,0,0,0,73.6,138.5Z"/>
        <path id="Path_5319" data-name="Path 5319" d="M40.9,131.4c1.1-.1,1.5.3,1.5,1.2v2c1.1-.9,2.3-.5,3.4-.5a1.078,1.078,0,0,1,1.1,1.2,6.054,6.054,0,0,1,0,1.9,1.344,1.344,0,0,1-1.4,1.3H42.2a1.24,1.24,0,0,1-1.3-1.2Zm3,6.1c1.6,0,1.6,0,1.6-1.6v-.1c0-.5-.2-.7-.7-.7a9.633,9.633,0,0,0-1.7,0c-.2,0-.6.4-.7.6C42.3,137.5,42.2,137.5,43.9,137.5Z"/>
        <path id="Path_5320" data-name="Path 5320" d="M88.7,138.4H83.8a1.4,1.4,0,0,1-1.3-1.3v-1.6a1.453,1.453,0,0,1,1.5-1.4h3.2a1.391,1.391,0,0,1,1.4,1.1c.3,1,0,1.4-1.1,1.4H85.4a6.753,6.753,0,0,1-1.4-.2c-.3.5-.2,1,.5,1,.9.1,1.8,0,2.7.1A1.258,1.258,0,0,1,88.7,138.4Zm-3.1-3.2H84.5c-.2,0-.3.2-.4.4.1.1.3.4.4.4h2.2c.1,0,.3-.3.4-.4-.1-.1-.3-.3-.4-.3A3.75,3.75,0,0,0,85.6,135.2Z"/>
        <path id="Path_5321" data-name="Path 5321" d="M63.7,136.7v1.8H62.3v-7.1c1-.1,1.4.2,1.4,1.2v3a2.015,2.015,0,0,0,2.5-.8c.5-.7,1-.7,1.9-.6-.4.6-.8,1.1-1.2,1.6,1.2.6.8,1.7.9,2.7H66.5a4.052,4.052,0,0,0,0-1.1,1.407,1.407,0,0,0-.6-.7Z"/>
        <path id="Path_5322" data-name="Path 5322" d="M54.1,138.6a8.34,8.34,0,0,1-1.2-.4,5.019,5.019,0,0,1-1.2.2h-2a1.417,1.417,0,0,1-1.5-1.5v-1.2a1.558,1.558,0,0,1,1.5-1.6h3.1a1.5,1.5,0,0,1,1.5,1.6v2.4C54.2,138.3,54.1,138.3,54.1,138.6Zm-1.5-1.3v-1.6c0-.2-.3-.4-.5-.5a6.054,6.054,0,0,0-1.9,0c-.2,0-.5.2-.5.4a2.854,2.854,0,0,0,0,1.3c0,.2.3.4.4.4Z"/>
        <path id="Path_5323" data-name="Path 5323" d="M100.9,138.1a7.894,7.894,0,0,1-1.3.3H97.5a1.417,1.417,0,0,1-1.5-1.5V136c0-1.3.5-1.8,1.8-1.9h2.5a1.53,1.53,0,0,1,1.7,1.7v1.9c0,.8-.4,1-1,.6A.349.349,0,0,0,100.9,138.1Zm-.3-.8a7.444,7.444,0,0,0,0-1.5c0-.2-.3-.5-.6-.6a5.437,5.437,0,0,0-1.8,0c-.2,0-.5.2-.5.4a2.845,2.845,0,0,0,0,1.3c0,.2.3.4.5.4A19.143,19.143,0,0,0,100.6,137.3Z"/>
        <path id="Path_5324" data-name="Path 5324" d="M61,138.5H59.7v-2.3c0-1.1-.1-1.2-1.1-1.2H57.5c-.5,0-.7.2-.7.7v2.7H55.4v-4.6l1.5.6c.9-.9,2.1-.5,3.3-.4.3,0,.8.6.9.9C61.1,136.2,61,137.3,61,138.5Z"/>
        <path id="Path_5325" data-name="Path 5325" d="M90.1,131.4c.9-.1,1.4.2,1.4,1.1v6H90.1Z"/>
        <path id="Path_5326" data-name="Path 5326" d="M94.4,138.5H93.1v-6.3c0-.3-.2-.7.3-.8a.937.937,0,0,1,1.1.8v6A.367.367,0,0,0,94.4,138.5Z"/>
        <path id="Path_5327" data-name="Path 5327" d="M103.6,135.1a2.2,2.2,0,0,1-.8-.1v-.9c.3,0,.5-.1.8-.1a6.15,6.15,0,0,1,.1-1.4c1-.1,1.2.1,1.5,1.4.2,0,.5.1.7.1v.9a2.2,2.2,0,0,0-.8.1,12.033,12.033,0,0,0,0,1.9c0,.3.4.5.7.7l.1-.1v.8c-1.4.4-2.4-.2-2.3-1.6A9.651,9.651,0,0,0,103.6,135.1Z"/>
      </g>
    </g>
  </g>
</svg>
