<svg id="Layer_4" xmlns="http://www.w3.org/2000/svg" width="33.963" height="33.737" viewBox="0 0 33.963 33.737">
  <g id="Group_1234" data-name="Group 1234" transform="translate(0)">
    <path id="Path_18" data-name="Path 18" d="M217.911,201.766c0,.442.014.9,0,1.349a1.314,1.314,0,0,1-2.588.231,6.759,6.759,0,0,1-.041-1.082c0-.173,0-.345,0-.549-.782,0-1.524,0-2.266,0a3.823,3.823,0,0,1-.587-.029,1.318,1.318,0,0,1,.188-2.621c1.261-.01,2.524,0,3.785,0,.475,0,.952,0,1.427,0a1.328,1.328,0,1,0,.005-2.65c-.838-.007-1.676,0-2.513,0a3.964,3.964,0,0,1-.531-7.9c.153-.015.305-.034.5-.055,0-.475-.016-.938,0-1.4a1.315,1.315,0,0,1,2.6-.141,8.529,8.529,0,0,1,.023.991c0,.174,0,.348,0,.566h.637c.641,0,1.283,0,1.924,0a1.327,1.327,0,1,1,0,2.65c-1.727,0-3.455,0-5.181,0a1.321,1.321,0,0,0-.864,2.336,1.415,1.415,0,0,0,.95.314c.879,0,1.758-.014,2.637.005a3.96,3.96,0,0,1,1.132,7.728A11.734,11.734,0,0,1,217.911,201.766Z" transform="translate(-199.613 -178.224)" fill="#4066ff"/>
    <g id="Group_1233" data-name="Group 1233">
      <g id="Group_1231" data-name="Group 1231" transform="translate(15.786 2.833)">
        <path id="Path_19" data-name="Path 19" d="M242.639,186.338a1.369,1.369,0,1,1,0-2.739,14.071,14.071,0,0,0,8.84-25.018,1.369,1.369,0,1,1,1.721-2.129,16.809,16.809,0,0,1-10.561,29.886Z" transform="translate(-241.27 -155.434)"/>
        <path id="Path_20" data-name="Path 20" d="M308.379,159.715a1.37,1.37,0,0,1-1.369-1.369V152.3a1.37,1.37,0,0,1,1.369-1.369h0l6.032.015a1.369,1.369,0,0,1,0,2.739h0l-4.66-.011v4.675A1.367,1.367,0,0,1,308.379,159.715Z" transform="translate(-298.008 -150.93)"/>
      </g>
      <g id="Group_1232" data-name="Group 1232">
        <path id="Path_21" data-name="Path 21" d="M133.086,160.43a1.367,1.367,0,0,1-.86-.3,16.809,16.809,0,0,1,10.563-29.886,1.369,1.369,0,1,1,0,2.739A14.071,14.071,0,0,0,133.949,158a1.369,1.369,0,0,1-.863,2.433Z" transform="translate(-125.98 -130.24)"/>
        <path id="Path_22" data-name="Path 22" d="M136.341,300.557h0l-6.032-.015a1.369,1.369,0,0,1,0-2.739h0l4.66.011v-4.675a1.369,1.369,0,1,1,2.739,0v6.047a1.372,1.372,0,0,1-1.371,1.371Z" transform="translate(-128.535 -269.652)"/>
      </g>
    </g>
  </g>
</svg>
