<svg xmlns="http://www.w3.org/2000/svg" width="177" height="177" viewBox="0 0 177 177">
  <g id="Group_1600" data-name="Group 1600" transform="translate(-163 -803)">
    <g id="Ellipse_129" data-name="Ellipse 129" transform="translate(163 803)" fill="#fff" stroke="#707070" stroke-width="1" stroke-dasharray="11">
      <circle cx="88.5" cy="88.5" r="88.5" stroke="none"/>
      <circle cx="88.5" cy="88.5" r="88" fill="none"/>
    </g>
    <g id="cancel" transform="translate(184.646 825.146)">
      <path id="Path_5349" data-name="Path 5349" d="M57.018,0a57.018,57.018,0,1,0,57.018,57.018A57.018,57.018,0,0,0,57.018,0Z" transform="matrix(0.707, -0.707, 0.707, 0.707, -13.782, 66.856)" fill="#fff"/>
      <path id="Path_5350" data-name="Path 5350" d="M41.468,0A41.468,41.468,0,1,0,82.936,41.468,41.468,41.468,0,0,0,41.468,0Z" transform="matrix(0.707, -0.707, 0.707, 0.707, 8.209, 66.856)" fill="#ff5576"/>
      <path id="Path_5351" data-name="Path 5351" d="M66.128,126.257A60.172,60.172,0,0,1,6,66.128,60.172,60.172,0,0,1,66.128,6a59.414,59.414,0,0,1,42.5,17.624h0a60.067,60.067,0,0,1,0,85.009A59.414,59.414,0,0,1,66.128,126.257Zm0-114.037a53.813,53.813,0,0,0-38.15,15.758A53.207,53.207,0,0,0,12.22,66.128a53.813,53.813,0,0,0,15.758,38.15,53.207,53.207,0,0,0,38.15,15.758,53.813,53.813,0,0,0,38.15-15.758,53.207,53.207,0,0,0,15.758-38.15,53.813,53.813,0,0,0-15.758-38.15h0A53.813,53.813,0,0,0,66.128,12.22Z" transform="translate(0.726 0.726)" fill="#444b54"/>
      <path id="Path_5352" data-name="Path 5352" d="M68.96,64.606,80.674,52.891a3.079,3.079,0,0,0-4.354-4.354L64.606,60.251,52.891,48.433a3.079,3.079,0,0,0-4.354,4.354L60.251,64.606,48.433,76.32a3.006,3.006,0,0,0,0,4.354,3.006,3.006,0,0,0,4.354,0L64.606,68.96,76.32,80.674a3.006,3.006,0,0,0,4.354,0,3.006,3.006,0,0,0,0-4.354Z" transform="translate(2.249 2.249)" fill="#fff"/>
    </g>
  </g>
</svg>
