<svg xmlns="http://www.w3.org/2000/svg" width="50.875" height="52.504" viewBox="0 0 50.875 52.504">
  <g id="print_webpage" transform="translate(-5.8 -6)">
    <path id="Path_5338" data-name="Path 5338" d="M41.8,14.875v-1.81A4.153,4.153,0,0,1,45.964,8.9h19.01a4.222,4.222,0,0,1,2.942,1.222L73.8,16.006a4.222,4.222,0,0,1,1.222,2.942v29.42a4.153,4.153,0,0,1-4.164,4.164H60.629L41.8,14.875" transform="translate(-19.706 -1.587)" fill="#f2e5ac"/>
    <path id="Path_5339" data-name="Path 5339" d="M50.038,13.6H42.343a3.12,3.12,0,0,0-.317.679c-.045.091-.045.181-.091.272a4.56,4.56,0,0,0-.136,1.132v1.765L60.629,55.105H64.2V27.767a8.252,8.252,0,0,0-2.444-5.884l-5.839-5.839A8.252,8.252,0,0,0,50.038,13.6" transform="translate(-19.706 -4.16)" fill="#d9ce9a"/>
    <path id="Path_5340" data-name="Path 5340" d="M69.216,52.3H58.987a1.358,1.358,0,0,1,0-2.716H69.216a2.82,2.82,0,0,0,2.806-2.806V17.361a2.808,2.808,0,0,0-.815-1.992L65.324,9.485a2.885,2.885,0,0,0-1.992-.769H44.322a2.82,2.82,0,0,0-2.806,2.806v1.81a1.358,1.358,0,1,1-2.716,0v-1.81A5.544,5.544,0,0,1,44.322,6h19.01a5.521,5.521,0,0,1,3.893,1.629l5.884,5.884a5.521,5.521,0,0,1,1.629,3.893v29.42A5.535,5.535,0,0,1,69.216,52.3Z" transform="translate(-18.063)" fill="#454b54"/>
    <path id="Path_5341" data-name="Path 5341" d="M37.858,66.287H12.964A4.153,4.153,0,0,1,8.8,62.123V26.864A4.153,4.153,0,0,1,12.964,22.7h19.01a4.222,4.222,0,0,1,2.942,1.222L40.8,29.806a4.222,4.222,0,0,1,1.222,2.942v29.42A4.144,4.144,0,0,1,37.858,66.287Z" transform="translate(-1.642 -9.141)" fill="#fff"/>
    <path id="Path_5342" data-name="Path 5342" d="M36.216,66H11.322A5.544,5.544,0,0,1,5.8,60.481V25.222A5.544,5.544,0,0,1,11.322,19.7h19.01a5.521,5.521,0,0,1,3.893,1.629l5.884,5.884a5.521,5.521,0,0,1,1.629,3.893v29.42A5.535,5.535,0,0,1,36.216,66ZM11.322,22.461a2.82,2.82,0,0,0-2.806,2.806V60.527a2.82,2.82,0,0,0,2.806,2.806H36.216a2.82,2.82,0,0,0,2.806-2.806V31.106a2.808,2.808,0,0,0-.815-1.992L32.324,23.23a2.733,2.733,0,0,0-1.992-.815l-19.01.045Z" transform="translate(0 -7.499)" fill="#454b54"/>
    <path id="Path_5343" data-name="Path 5343" d="M42.124,85.363H25.558a1.358,1.358,0,0,1,0-2.716H42.169A1.334,1.334,0,0,1,43.527,84,1.372,1.372,0,0,1,42.124,85.363Zm0-6.246H25.558a1.358,1.358,0,0,1,0-2.716H42.169a1.334,1.334,0,0,1,1.358,1.358A1.372,1.372,0,0,1,42.124,79.117Zm0-6.2H25.558a1.358,1.358,0,0,1,0-2.716H42.169a1.334,1.334,0,0,1,1.358,1.358A1.372,1.372,0,0,1,42.124,72.916Z" transform="translate(-10.072 -35.142)" fill="#454b54"/>
  </g>
</svg>
