<svg id="logo-light-mode" xmlns="http://www.w3.org/2000/svg" width="145.519" height="71.539" viewBox="0 0 145.519 71.539">
  <path id="Path_5303" data-name="Path 5303" d="M120.806,61.76a21.011,21.011,0,0,1,8.845,1.94V76.21a11.069,11.069,0,1,0,2.225,6.656,11.824,11.824,0,0,0-.285-2.527V59.322A10.352,10.352,0,0,1,141.912,49V82.83h0v.053A21.106,21.106,0,1,1,120.806,61.76" transform="translate(-99.7 -49)" fill="#fff" fill-rule="evenodd"/>
  <path id="Path_5304" data-name="Path 5304" d="M330.921,158.612a21.011,21.011,0,0,0,8.845-1.94V144.162a11.069,11.069,0,1,1,2.224-6.656,11.823,11.823,0,0,1-.285,2.527v12.778a19.1,19.1,0,0,1-.142,3.185c-.392,2.741-1.9,8.062-7.812,9.343a11.311,11.311,0,0,1-6.9-.534c-3.47-1.353-6.068-3.435-8.916-4.022a9.074,9.074,0,0,0-9.129,3.274s12.475,15.091,25.84,11.265c11.995-3.541,17.369-10.784,17.369-22.779V137.56h0v-.053a21.109,21.109,0,0,0-37.087-13.792v14.806h0v.053a20.947,20.947,0,0,1-2.278,9.539,21.16,21.16,0,0,0,18.277,10.5" transform="translate(-271.588 -104.405)" fill="#fff" fill-rule="evenodd"/>
  <path id="Path_5305" data-name="Path 5305" d="M701.306,158.43c3.15,0,8.471-1.477,11.123-3.613-.908-2.669-2.652-3.933-2.278-10.838a11.069,11.069,0,1,1,2.225-6.656,11.823,11.823,0,0,1-.285,2.527v8.275a10.352,10.352,0,0,0,10.322,10.322V137.36h0v-.053a21.106,21.106,0,0,0-42.212-.053,9.141,9.141,0,0,1,1.762,2.812,13.19,13.19,0,0,1,.73,7.172,21.045,21.045,0,0,0,18.615,11.194" transform="translate(-576.894 -104.241)" fill="#fff" fill-rule="evenodd"/>
  <path id="Path_5306" data-name="Path 5306" d="M560.436,126.731s-1.406-12.956-16.764-9.681c0,0-8.346,1.37-11.372,7.492a21.066,21.066,0,0,1,4.538,13.062v.053h0v2.474c1.584.534,3.185,1.032,4.769,1.513,2.491.747,7.029,1.655,8.168,4.146.943,2.064-.979,4.218-5.054,4.52-2.758.2-5.25-.569-7.9-1.21v3.524a33.622,33.622,0,0,1-.32,4.752c2.064.605,13.525,3.577,20.252-2.847a13.087,13.087,0,0,0,2.919-14.112c-2.865-7.083-10.909-5.659-16.07-9.076-3.1-2.064-1.513-4.752,1.37-5.926,3.915-1.566,11.176.765,15.465,1.317" transform="translate(-455.314 -104.503)" fill="#fff" fill-rule="evenodd"/>
</svg>
