<svg id="Layer_4" xmlns="http://www.w3.org/2000/svg" width="31.386" height="35.029" viewBox="0 0 31.386 35.029">
  <g id="Group_1226" data-name="Group 1226" transform="translate(0)">
    <path id="Path_4" data-name="Path 4" d="M158.279,122.081c.153.034.307.071.461.1a5.465,5.465,0,0,1,4.421,5.485c.019,2.713.007,5.426,0,8.139a1.39,1.39,0,0,1-.919,1.449,1.362,1.362,0,0,1-1.509-.437,1.613,1.613,0,0,1-.307-1.093c0-2.644-.005-5.289,0-7.934a2.836,2.836,0,0,0-1.075-2.4,2.7,2.7,0,0,0-1.717-.575q-8.361-.006-16.723,0a2.7,2.7,0,0,0-2.76,2.607c-.008.114-.014.227-.014.341q0,11.816,0,23.632a2.779,2.779,0,0,0,2.87,2.964c1.471,0,2.941-.005,4.412,0a1.341,1.341,0,0,1,1.323.943,1.281,1.281,0,0,1-.442,1.466,1.8,1.8,0,0,1-.912.308c-1.5.031-3.01.016-4.514.014a5.524,5.524,0,0,1-5.478-5.663c.038-4.525.01-9.051.01-13.578V127.739a5.325,5.325,0,0,1,2.747-4.9,10.687,10.687,0,0,1,1.879-.685c.084-.03.173-.048.257-.071Z" transform="translate(-135.398 -122.08)"/>
    <path id="Path_5" data-name="Path 5" d="M260.547,261.923a4.094,4.094,0,0,1-1.215,3.032q-3.683,3.691-7.389,7.361a2.133,2.133,0,0,1-.875.5c-1.714.5-3.44.967-5.162,1.44a1.347,1.347,0,0,1-1.814-.853,1.714,1.714,0,0,1,.007-.9q.756-2.606,1.576-5.192a2,2,0,0,1,.471-.772q3.664-3.687,7.354-7.346a4.106,4.106,0,0,1,6.983,2.136A4.891,4.891,0,0,1,260.547,261.923Zm-13.141,9.07c.874-.241,1.684-.456,2.488-.693a1.2,1.2,0,0,0,.486-.283q2.309-2.286,4.6-4.587c.071-.071.138-.147.182-.194l-1.973-1.979a1.743,1.743,0,0,1-.2.288c-1.247,1.252-2.472,2.528-3.761,3.734a4.363,4.363,0,0,0-1.447,2.429A12.135,12.135,0,0,1,247.406,270.993Zm9.752-7.773a1.392,1.392,0,0,0,.612-1.523,1.335,1.335,0,0,0-1.09-1.009,1.369,1.369,0,0,0-1.4.644Q256.218,262.278,257.158,263.22Z" transform="translate(-229.16 -239.323)" fill="#4066ff"/>
    <path id="Path_6" data-name="Path 6" d="M183.837,182.032q3.471,0,6.941,0A1.368,1.368,0,0,1,191,184.76c-.09.008-.182.008-.274.008q-6.889,0-13.778,0a1.369,1.369,0,0,1-1.506-1.258,1.353,1.353,0,0,1,1.424-1.475c1.721-.007,3.442,0,5.162,0Z" transform="translate(-169.953 -173.822)"/>
    <path id="Path_7" data-name="Path 7" d="M183.813,224.733c-2.314,0-4.627,0-6.941,0a1.367,1.367,0,0,1-.207-2.725,2.6,2.6,0,0,1,.274-.01q6.905,0,13.812,0a1.369,1.369,0,1,1,.07,2.732c-1.436.008-2.871,0-4.308,0Q185.164,224.735,183.813,224.733Z" transform="translate(-169.954 -208.314)"/>
    <path id="Path_8" data-name="Path 8" d="M181.078,264.687c-1.412,0-2.823.008-4.235,0a1.367,1.367,0,1,1,.033-2.732c1.4-.005,2.8,0,4.2,0s2.823-.008,4.235,0a1.366,1.366,0,1,1-.031,2.73C183.878,264.691,182.477,264.687,181.078,264.687Z" transform="translate(-169.959 -242.797)"/>
  </g>
</svg>
