<svg xmlns="http://www.w3.org/2000/svg" width="42.898" height="35.927" viewBox="0 0 42.898 35.927">
  <g id="Layer_4" transform="translate(0 0.5)">
    <g id="Group_1230" data-name="Group 1230" transform="translate(0)">
      <g id="Group_1228" data-name="Group 1228" transform="translate(0 8.355)">
        <path id="Path_14" data-name="Path 14" d="M107.52,185.081c.405.07.815.125,1.217.212a8.13,8.13,0,0,1,6.244,6.946,7.952,7.952,0,0,1-2.71,7.056c-.077.07-.155.138-.251.223.368.163.716.3,1.05.467a12.716,12.716,0,0,1,7.193,9.577,9.078,9.078,0,0,1,.151,1.152,1.361,1.361,0,0,1-1.257,1.434,1.345,1.345,0,0,1-1.442-1.209c-.067-.487-.12-.98-.231-1.458a9.785,9.785,0,0,0-7.3-7.7,11.526,11.526,0,0,0-9.23,1.113,9.714,9.714,0,0,0-4.687,6.69c-.094.446-.147.9-.208,1.356a1.345,1.345,0,0,1-1.2,1.206,1.374,1.374,0,0,1-1.424-.913c-.023-.064-.052-.127-.078-.192v-.582c.033-.179.07-.359.1-.539a12.729,12.729,0,0,1,7.28-9.945c.327-.16.665-.3,1.02-.453-.077-.071-.133-.125-.19-.177a7.976,7.976,0,0,1-2.826-6.027,8.078,8.078,0,0,1,5.741-7.865c.578-.171,1.183-.251,1.776-.371Zm-.627,13.534a5.416,5.416,0,1,0-5.45-5.413A5.44,5.44,0,0,0,106.893,198.615Z" transform="translate(-93.35 -185.08)"/>
        <path id="Path_15" data-name="Path 15" d="M266.14,202.391a11.08,11.08,0,0,1,3.242-2.358c.266-.13.541-.241.828-.368-.062-.057-.107-.1-.155-.144a6.482,6.482,0,0,1-2.3-4.9,6.565,6.565,0,0,1,4.665-6.392c.47-.138.961-.2,1.443-.3H274.9c.33.058.663.1.989.173a6.6,6.6,0,0,1,5.073,5.644,6.461,6.461,0,0,1-2.2,5.733l-.2.182c.3.133.582.245.854.379a10.332,10.332,0,0,1,5.844,7.782,7.2,7.2,0,0,1,.122.935,1.106,1.106,0,0,1-1.021,1.165,1.094,1.094,0,0,1-1.172-.983c-.055-.4-.1-.8-.188-1.186a7.95,7.95,0,0,0-5.933-6.258,9.358,9.358,0,0,0-7.5.905,7.937,7.937,0,0,0-1.764,1.386m6.592-4.86a4.4,4.4,0,1,0-4.428-4.4A4.42,4.42,0,0,0,274.391,198.928Z" transform="translate(-242.481 -187.54)"/>
      </g>
      <g id="Group_1229" data-name="Group 1229" transform="translate(17.684)">
        <path id="Path_16" data-name="Path 16" d="M230.71,152.469h-7.256a.954.954,0,1,1,0-1.909h7.256a.954.954,0,1,1,0,1.909Z" transform="translate(-222.5 -146.931)" fill="#4066ff" stroke="#4066ff" stroke-miterlimit="10" stroke-width="1"/>
        <path id="Path_17" data-name="Path 17" d="M249.944,133.224a.954.954,0,0,1-.954-.954v-7.256a.954.954,0,1,1,1.909,0v7.256A.954.954,0,0,1,249.944,133.224Z" transform="translate(-245.363 -124.06)" fill="#4066ff" stroke="#4066ff" stroke-miterlimit="10" stroke-width="1"/>
      </g>
    </g>
  </g>
</svg>
