<svg xmlns="http://www.w3.org/2000/svg" width="80.694" height="84.039" viewBox="0 0 80.694 84.039">
  <g id="schedule" transform="translate(-5.996 -1)">
    <path id="Path_5333" data-name="Path 5333" d="M69.018,89.355H22.337A13.334,13.334,0,0,1,9,76.017V33.337A13.334,13.334,0,0,1,22.337,20H69.018A13.334,13.334,0,0,1,82.356,33.337v42.68A13.334,13.334,0,0,1,69.018,89.355Z" transform="translate(-1.001 -6.329)" fill="#fff"/>
    <path id="Path_5334" data-name="Path 5334" d="M79.342,50A29.323,29.323,0,0,0,57.9,99.348H82.677A13.334,13.334,0,0,0,96.014,86.011v-30.8A29.2,29.2,0,0,0,79.342,50Z" transform="translate(-14.659 -16.323)" fill="#f3e6ff"/>
    <circle id="Ellipse_148" data-name="Ellipse 148" cx="20.006" cy="20.006" r="20.006" transform="translate(44.677 43.013)" fill="#fff"/>
    <path id="Path_5335" data-name="Path 5335" d="M43.237,81.024h0l-3.074.007c-15.7.027-23.581.04-26.948-3.328C9.973,74.462,9.98,66.8,9.993,52.9V46.807c0-7.6-.007-13.4.353-17.8H78.994c.227,2.707.313,5.962.347,9.883a2,2,0,0,0,2,1.987h.013a2,2,0,0,0,1.987-2.014c-.093-12.13-.54-19.779-5.908-23.707C74.38,12.917,69.958,12.1,63.35,11.817V3a2,2,0,0,0-4,0v8.7c-2.928-.047-6.215-.04-9.916-.033-1.514.007-3.094.007-4.755.007s-3.241,0-4.755-.007c-3.708-.007-7-.013-9.916.033V3a2,2,0,0,0-4,0V11.81c-7.6.327-12.27,1.347-15.338,4.408C5.972,20.913,5.979,29.562,6,46.807V52.9c-.013,15.465-.02,23.227,4.395,27.642,4.195,4.195,11.71,4.5,26.061,4.5,1.194,0,2.427,0,3.714-.007l3.068-.007a2,2,0,0,0,0-4Zm-3.321-65.36q2.271.01,4.761.007t4.761-.007c14.091-.027,21.86-.047,25.634,2.714,1.754,1.287,2.794,3.374,3.408,6.629H10.86c.513-2.728,1.334-4.655,2.634-5.955C16.935,15.618,25.1,15.631,39.916,15.664Z" transform="translate(0)" fill="#444b54"/>
    <path id="Path_5336" data-name="Path 5336" d="M83.007,61a22.007,22.007,0,1,0,22.007,22.007A22.028,22.028,0,0,0,83.007,61Zm0,40.012a18.006,18.006,0,1,1,18.006-18.006A18.024,18.024,0,0,1,83.007,101.012Z" transform="translate(-18.323 -19.988)" fill="#444b54"/>
    <path id="Path_5337" data-name="Path 5337" d="M95,88.176V81a2,2,0,0,0-4,0v8a2,2,0,0,0,.587,1.414l5.662,5.662a2,2,0,0,0,2.828-2.828Z" transform="translate(-28.317 -25.984)" fill="#444b54"/>
  </g>
</svg>
