<svg id="Layer_4" xmlns="http://www.w3.org/2000/svg" width="35.97" height="35.94" viewBox="0 0 35.97 35.94">
  <g id="Group_1227" data-name="Group 1227" transform="translate(0 0)">
    <path id="Path_9" data-name="Path 9" d="M185.77,122.19c.65.031,1.31.011,1.951.107a3.78,3.78,0,0,1,3.167,3.6c.021.639.031,1.28,0,1.918-.019.353.133.467.43.582a15.033,15.033,0,0,1,8.58,8.032,15.3,15.3,0,0,1-7.7,20.325,15.056,15.056,0,0,1-12.738-.071,1.278,1.278,0,1,1,1.039-2.33,13.2,13.2,0,0,0,5.472,1.136A12.782,12.782,0,0,0,187.91,130.1c-5.3-.83-9.566,1.076-12.715,5.425a1.409,1.409,0,0,1-1.462.746,1.279,1.279,0,0,1-.774-2.033A14.743,14.743,0,0,1,178,129.483c.76-.433,1.573-.774,2.376-1.13a.409.409,0,0,0,.292-.44,19.776,19.776,0,0,1,.081-2.551,3.762,3.762,0,0,1,3.542-3.133c.493-.021.986,0,1.479,0Q185.77,122.208,185.77,122.19Zm2.565,5.381c0-.572.021-1.091-.005-1.608a1.251,1.251,0,0,0-1.234-1.18q-1.317-.025-2.633,0a1.227,1.227,0,0,0-1.223,1.1c-.044.553-.01,1.112-.01,1.7A14.027,14.027,0,0,1,188.335,127.571Z" transform="translate(-165.306 -122.19)"/>
    <path id="Path_10" data-name="Path 10" d="M240.13,231.653a3.819,3.819,0,0,1,5.562-3.409.43.43,0,0,0,.557-.052c1.065-.864,2.142-1.717,3.216-2.57a1.27,1.27,0,1,1,1.588,1.965q-1.586,1.28-3.185,2.544a.461.461,0,0,0-.2.56,3.824,3.824,0,0,1-5.309,4.432A3.8,3.8,0,0,1,240.13,231.653Zm5.117,0a1.278,1.278,0,1,0-1.269,1.275A1.283,1.283,0,0,0,245.247,231.652Z" transform="translate(-223.496 -211.149)"/>
    <path id="Path_11" data-name="Path 11" d="M125.047,283.812q-2.459,0-4.917,0a1.291,1.291,0,1,1-.022-2.558q5,0,9.994,0a1.272,1.272,0,0,1,1.29.934,1.2,1.2,0,0,1-.52,1.39,1.785,1.785,0,0,1-.827.225C128.378,283.822,126.712,283.812,125.047,283.812Z" transform="translate(-118.65 -259.473)" fill="#4066ff"/>
    <path id="Path_12" data-name="Path 12" d="M142.453,246.441q-1.838,0-3.678,0a1.287,1.287,0,1,1-.012-2.558q3.7,0,7.4,0a1.285,1.285,0,1,1,.012,2.558Q144.312,246.443,142.453,246.441Z" transform="translate(-134.781 -227.22)" fill="#4066ff"/>
    <path id="Path_13" data-name="Path 13" d="M142.451,318.626q1.838,0,3.678,0a1.287,1.287,0,1,1-.008,2.558q-3.738,0-7.476,0a1.286,1.286,0,0,1-1.32-1.142,1.274,1.274,0,0,1,.972-1.373,2.115,2.115,0,0,1,.475-.04Q140.612,318.623,142.451,318.626Z" transform="translate(-134.761 -291.728)" fill="#4066ff"/>
  </g>
</svg>
